<svg width="36" height="36" viewBox="0 0 36 36" fill="none" xmlns="http://www.w3.org/2000/svg">
<g id="Frame 1171275362">
<rect x="1.00626" y="1.22745" width="34.1323" height="34.1323" rx="9.52529" stroke="black" stroke-width="0.793774"/>
<path id="Vector" d="M21.3613 19.7043H21.0254V20.0402V29.6978H15.2988V20.0402V19.7043H14.9629H10.5V15.6733H14.9629H15.2988V15.3373V12.0454C15.2988 10.3671 16.0157 9.08688 17.2424 8.21458C18.4818 7.3333 20.2628 6.85545 22.3898 6.85545C24.1647 6.85545 25.8563 6.93896 26.624 6.99388V10.2986H24.5605C22.947 10.2986 22.0162 10.5805 21.5135 11.1292C21.0244 11.663 21.0249 12.3699 21.0253 12.9368C21.0254 12.9533 21.0254 12.9697 21.0254 12.9859V15.3373V15.6733H21.3613H26.4908L25.1197 19.7043H21.3613Z" fill="black" stroke="black" stroke-width="0.671833"/>
</g>
</svg>
