<svg width="25" height="20" viewBox="0 0 25 20" fill="none" xmlns="http://www.w3.org/2000/svg">
<path id="Vector" d="M21.652 4.1691C22.175 4.11287 22.6967 4.01106 23.2171 3.86417C22.7703 4.35742 22.2759 4.80081 21.7336 5.19471L21.5552 5.32424L21.5709 5.54411C21.5798 5.66839 21.5848 5.86522 21.5848 6.14093C21.5848 7.39156 21.4021 8.64137 21.0353 9.89139C20.6697 11.1373 20.1135 12.335 19.3645 13.485C18.6161 14.6343 17.7258 15.6499 16.6932 16.5329C15.6727 17.4056 14.436 18.1074 12.9765 18.6342C11.5245 19.1583 9.96795 19.4218 8.30398 19.4218C6.23441 19.4218 4.30764 18.9842 2.51901 18.1085C4.66431 18.0241 6.59381 17.3131 8.29585 15.9785L9.17319 15.2906L8.05852 15.2694C7.09926 15.2511 6.24768 14.9585 5.49165 14.3892C4.90697 13.9489 4.46655 13.4188 4.16613 12.7953C4.26768 12.8009 4.36702 12.8037 4.46409 12.8037C4.92501 12.8037 5.38049 12.7447 5.82973 12.627L5.80901 11.8543C4.78665 11.6443 3.94569 11.1392 3.27365 10.33C2.72963 9.67498 2.40758 8.93805 2.30622 8.11023C2.85385 8.32832 3.42977 8.44918 4.03211 8.47235L5.43891 8.52645L4.26751 7.74552C3.66696 7.34515 3.18937 6.82282 2.83248 6.1731C2.47849 5.52866 2.30106 4.8306 2.30106 4.07215C2.30106 3.46556 2.41501 2.89558 2.64316 2.35898C3.80079 3.6668 5.17397 4.7303 6.7602 5.54856C8.53275 6.46293 10.4311 6.97108 12.4513 7.07311L12.9658 7.09909L12.8597 6.59496C12.7855 6.24271 12.7491 5.90303 12.7491 5.57536C12.7491 4.35073 13.1763 3.31817 14.0393 2.45518C14.9023 1.59219 15.9349 1.16495 17.1595 1.16495C18.4391 1.16495 19.5054 1.62575 20.383 2.55817L20.5326 2.71719L20.7471 2.67588C21.4888 2.53297 22.2017 2.3093 22.8852 2.00515C22.5256 2.58205 22.0337 3.0572 21.4054 3.43416L21.652 4.1691Z" fill="black" stroke="black" stroke-width="0.793774"/>
</svg>
