<svg width="22" height="22" viewBox="0 0 22 22" fill="none" xmlns="http://www.w3.org/2000/svg">
<path id="feGoogle2" d="M17.3237 12.5465H11.6956V9.3432H21.2143C21.3295 9.89089 21.41 10.4291 21.41 11.1431C21.41 14.1101 20.3961 16.6231 18.6423 18.393C16.8892 20.1623 14.3703 21.2157 11.3096 21.2157C5.48532 21.2157 0.771887 16.5851 0.771887 10.8966C0.771887 5.20813 5.48532 0.577551 11.3096 0.577551C13.9966 0.577551 16.262 1.48556 18.0376 2.98877L15.5073 5.39868C14.634 4.68444 13.2515 3.95228 11.3096 3.95228C7.47183 3.95228 4.34104 7.07612 4.34104 10.9073C4.34104 14.7386 7.47183 17.8624 11.3096 17.8624C13.502 17.8624 15.0354 17.1155 16.0575 16.1196C17.0706 15.1325 17.5609 13.9215 17.715 13.0095L17.7933 12.5465H17.3237Z" fill="black" stroke="black" stroke-width="0.793774"/>
</svg>
